<svg width="87" height="18" viewBox="0 0 87 18" fill="none" xmlns="http://www.w3.org/2000/svg">
<g id="Frame" clip-path="url(#clip0_12_41)">
<path id="Vector" d="M9.18522 2.92931C10.3219 3.54742 11.2639 4.51551 11.8925 5.71155C12.5472 6.99149 12.8766 8.43612 12.8471 9.8984C12.8794 11.3548 12.5497 12.7939 11.8925 14.0656C11.2587 15.2511 10.3175 16.2099 9.18522 16.8234C7.92361 17.4991 6.52971 17.8355 5.12205 17.8039H0V1.95369H5.12205C6.52934 1.92054 7.92322 2.25523 9.18522 2.92931ZM8.58663 13.7322C9.42557 12.8253 9.84503 11.5465 9.84503 9.89595C9.84503 8.24539 9.42557 6.956 8.58663 6.02777C7.74467 5.09627 6.55504 4.63052 5.01774 4.63052H2.93854V15.0952H5.01774C6.55655 15.0952 7.74618 14.6409 8.58663 13.7322Z" fill="#03314B"/>
<path id="Vector_2" d="M19.4702 5.60616C20.1084 5.22077 20.8298 5.02537 21.5607 5.03991V8.37615H20.783C19.8609 8.37615 19.1648 8.61065 18.6947 9.07967C18.2246 9.54869 17.9903 10.3658 17.9918 11.531V17.7941H15.0442V5.22131H17.9918V7.18236C18.3531 6.53 18.8618 5.98762 19.4702 5.60616Z" fill="#03314B"/>
<path id="Vector_3" d="M23.7328 3.18915C23.5697 3.01597 23.4402 2.8094 23.3517 2.58149C23.2633 2.35358 23.2178 2.10892 23.2178 1.86177C23.2178 1.61462 23.2633 1.36995 23.3517 1.14204C23.4402 0.914132 23.5697 0.70756 23.7328 0.534379C24.0877 0.190358 24.5475 9.15527e-05 25.0241 9.15527e-05C25.5007 9.15527e-05 25.9606 0.190358 26.3154 0.534379C26.4785 0.70756 26.608 0.914132 26.6965 1.14204C26.7849 1.36995 26.8304 1.61462 26.8304 1.86177C26.8304 2.10892 26.7849 2.35358 26.6965 2.58149C26.608 2.8094 26.4785 3.01597 26.3154 3.18915C25.9606 3.53317 25.5007 3.72344 25.0241 3.72344C24.5475 3.72344 24.0877 3.53317 23.7328 3.18915ZM26.4718 5.22129V17.7941H23.5242V5.22129H26.4718Z" fill="#03314B"/>
<path id="Vector_4" d="M34.2195 14.8672L37.1672 5.22131H40.2962L35.9881 17.7941H32.4147L28.1339 5.22131H31.2833L34.2195 14.8672Z" fill="#03314B"/>
<path id="Vector_5" d="M52.6739 12.4625H44.1711C44.1986 13.27 44.5148 14.0345 45.0531 14.5951C45.5729 15.1102 46.2574 15.3871 46.9623 15.3673C48.0552 15.3673 48.8321 14.8599 49.2932 13.845H52.4675C52.1416 15.0412 51.4633 16.0896 50.5357 16.8307C49.5834 17.6102 48.4149 18 47.0303 18C45.9744 18.0201 44.9318 17.7422 44.0056 17.1935C43.125 16.6653 42.4039 15.8738 41.9287 14.9138C41.4174 13.8654 41.1607 12.6939 41.1827 11.5089C41.1574 10.3165 41.41 9.13628 41.9173 8.07708C42.3832 7.11967 43.0981 6.3306 43.9739 5.80716C44.9034 5.28947 45.9332 5.01734 46.9788 5.01308C48.0245 5.00882 49.0561 5.27255 49.9893 5.78265C50.8526 6.28243 51.5619 7.04416 52.0299 7.97412C52.5258 8.97498 52.7756 10.0967 52.7555 11.2319C52.7588 11.6438 52.7315 12.0553 52.6739 12.4625ZM49.7126 10.3274C49.7187 9.95543 49.6484 9.58665 49.5069 9.24756C49.3654 8.90848 49.1561 8.60752 48.8941 8.36634C48.3485 7.87126 47.6539 7.60961 46.9419 7.63093C46.2681 7.61043 45.612 7.86613 45.1053 8.34672C44.5905 8.86795 44.2682 9.5735 44.1983 10.3323L49.7126 10.3274Z" fill="#03314B"/>
<path id="Vector_6" d="M59.3174 5.60617C59.9549 5.22098 60.6755 5.02558 61.4057 5.03992V8.37616H60.6302C59.7051 8.37616 59.009 8.61066 58.5419 9.07968C58.0748 9.5487 57.8398 10.3658 57.8368 11.531V17.7941H54.8892V5.22132H57.8368V7.18237C58.1995 6.53044 58.7089 5.98825 59.3174 5.60617Z" fill="#03314B"/>
<path id="Vector_7" d="M71.9241 1.9537V13.0655C71.9241 14.6082 71.5114 15.8069 70.6861 16.6616C69.8607 17.5163 68.752 17.9469 67.3598 17.9534C65.9616 17.9534 64.8316 17.5146 63.97 16.6371C63.1084 15.7595 62.6776 14.5338 62.6776 12.9601H65.6252C65.6073 13.5303 65.767 14.0906 66.0787 14.551C66.232 14.7431 66.4244 14.8942 66.6407 14.9925C66.8571 15.0907 67.0916 15.1334 67.3258 15.1173C67.5537 15.1334 67.782 15.0927 67.9932 14.9983C68.2043 14.904 68.3925 14.7585 68.5434 14.5731C68.8443 14.144 68.9939 13.6129 68.9651 13.0753V1.9537H71.9241Z" fill="#00ACB6"/>
<path id="Vector_8" d="M86.9977 1.9537L82.0434 12.2811V17.7941H79.0958V12.2811L74.1189 1.9537H77.4361L80.5855 9.19243L83.7145 1.9537H86.9977Z" fill="#03314B"/>
</g>
<defs>
<clipPath id="clip0_12_41">
<rect width="87" height="18" fill="white"/>
</clipPath>
</defs>
</svg>
