<svg width="24" height="24" viewBox="0 0 24 24" fill="none" xmlns="http://www.w3.org/2000/svg">
<g id="ri:bus-fill">
<path id="Vector" d="M17 21C17 20.4477 16.5523 20 16 20H8C7.44772 20 7 20.4477 7 21C7 21.2652 6.89464 21.5196 6.70711 21.7071C6.51957 21.8946 6.26522 22 6 22H5C4.73478 22 4.48043 21.8946 4.29289 21.7071C4.10536 21.5196 4 21.2652 4 21V20.5C4 20.2239 3.77614 20 3.5 20C3.22386 20 3 19.7761 3 19.5V12.5C3 12.2239 2.77614 12 2.5 12C2.22386 12 2 11.7761 2 11.5V8.5C2 8.22386 2.22386 8 2.5 8C2.77614 8 3 7.77614 3 7.5V5C3 4.46957 3.21071 3.96086 3.58579 3.58579C3.96086 3.21071 4.46957 3 5 3H19C19.5304 3 20.0391 3.21071 20.4142 3.58579C20.7893 3.96086 21 4.46957 21 5V7.5C21 7.77614 21.2239 8 21.5 8C21.7761 8 22 8.22386 22 8.5V11.5C22 11.7761 21.7761 12 21.5 12C21.2239 12 21 12.2239 21 12.5V19.5C21 19.7761 20.7761 20 20.5 20C20.2239 20 20 20.2239 20 20.5V21C20 21.2652 19.8946 21.5196 19.7071 21.7071C19.5196 21.8946 19.2652 22 19 22H18C17.7348 22 17.4804 21.8946 17.2929 21.7071C17.1054 21.5196 17 21.2652 17 21ZM5 4C4.44772 4 4 4.44772 4 5V14C4 14.5523 4.44772 15 5 15H19C19.5523 15 20 14.5523 20 14V5C20 4.44771 19.5523 4 19 4H5Z" fill="#CCCCCC"/>
</g>
</svg>
