<svg width="24" height="24" viewBox="0 0 24 24" fill="none" xmlns="http://www.w3.org/2000/svg">
<g id="ICONS">
<path id="Vector" d="M3.94799 13.318C3.85847 13.5624 3.67717 13.7623 3.44261 13.8752C3.20806 13.988 2.93874 14.005 2.69188 13.9224C2.44501 13.8399 2.24007 13.6643 2.12058 13.4331C2.0011 13.2018 1.97649 12.9331 2.052 12.684C2.032 12.744 2.052 12.682 2.052 12.682C2.08756 12.5719 2.12895 12.4637 2.176 12.358C2.256 12.168 2.374 11.906 2.536 11.596C2.866 10.976 3.37999 10.15 4.138 9.324C5.66799 7.654 8.174 6 12 6C15.826 6 18.332 7.654 19.862 9.324C20.6787 10.22 21.341 11.2452 21.822 12.358L21.914 12.584C21.92 12.6 21.94 12.704 21.96 12.804L22 13C22 13 22.168 13.666 21.316 13.948C21.0651 14.0318 20.7912 14.0128 20.5543 13.8951C20.3174 13.7773 20.1368 13.5706 20.052 13.32V13.314L20.04 13.282C19.9395 13.0251 19.8247 12.774 19.696 12.53C19.3404 11.859 18.9008 11.236 18.388 10.676C17.168 9.346 15.174 8 12 8C8.826 8 6.832 9.346 5.61199 10.676C4.95147 11.4001 4.41433 12.2278 4.02199 13.126C4.00101 13.1776 3.98101 13.2296 3.96199 13.282L3.94799 13.318Z" fill="#00CEDA"/>
<path id="Vector_2" d="M9.17157 12.1716C8.42143 12.9217 8 13.9391 8 15C8 16.0609 8.42143 17.0783 9.17157 17.8284C9.92172 18.5786 10.9391 19 12 19C13.0609 19 14.0783 18.5786 14.8284 17.8284C15.5786 17.0783 16 16.0609 16 15C16 13.9391 15.5786 12.9217 14.8284 12.1716C14.0783 11.4214 13.0609 11 12 11C10.9391 11 9.92172 11.4214 9.17157 12.1716Z" fill="#00CEDA"/>
</g>
</svg>
