<svg width="16" height="17" viewBox="0 0 16 17" fill="none" xmlns="http://www.w3.org/2000/svg">
<g id="uil:bus">
<path id="Vector" d="M5.66634 11.8333C5.84315 11.8333 6.01272 11.7631 6.13775 11.6381C6.26277 11.513 6.33301 11.3435 6.33301 11.1667C6.33628 11.1223 6.33628 11.0777 6.33301 11.0333C6.32571 10.9916 6.31223 10.9511 6.29301 10.9133C6.27842 10.8708 6.25824 10.8305 6.23301 10.7933L6.15301 10.6933C6.08961 10.6326 6.01484 10.5851 5.93301 10.5533C5.80839 10.4947 5.66865 10.476 5.53301 10.5L5.41301 10.54L5.29301 10.6C5.25808 10.6246 5.22469 10.6513 5.19301 10.68L5.11301 10.78C5.08778 10.8172 5.0676 10.8575 5.05301 10.9C5.03379 10.9378 5.0203 10.9782 5.01301 11.02C5.00974 11.0644 5.00974 11.1089 5.01301 11.1533C5.01301 11.3301 5.08325 11.4997 5.20827 11.6247C5.33329 11.7498 5.50286 11.82 5.67967 11.82L5.66634 11.8333ZM10.9997 11.8333C11.1765 11.8333 11.3461 11.7631 11.4711 11.6381C11.5961 11.513 11.6663 11.3435 11.6663 11.1667C11.6696 11.1223 11.6696 11.0777 11.6663 11.0333C11.659 10.9916 11.6456 10.9511 11.6263 10.9133C11.6117 10.8708 11.5916 10.8305 11.5663 10.7933L11.4863 10.6933C11.4215 10.6344 11.3471 10.5871 11.2663 10.5533C11.104 10.4866 10.922 10.4866 10.7597 10.5533C10.6789 10.5871 10.6045 10.6344 10.5397 10.6933L10.4597 10.7933C10.4344 10.8305 10.4143 10.8708 10.3997 10.9133C10.3805 10.9511 10.367 10.9916 10.3597 11.0333C10.3564 11.0777 10.3564 11.1223 10.3597 11.1667C10.3604 11.3416 10.4298 11.5092 10.553 11.6333C10.6712 11.7542 10.8308 11.8257 10.9997 11.8333ZM12.333 1.83333H4.33301C3.80257 1.83333 3.29387 2.04404 2.91879 2.41911C2.54372 2.79419 2.33301 3.3029 2.33301 3.83333V11.8333C2.33417 12.246 2.46293 12.6481 2.70163 12.9847C2.94034 13.3213 3.27731 13.5758 3.66634 13.7133V14.5C3.66634 14.6768 3.73658 14.8464 3.8616 14.9714C3.98663 15.0964 4.1562 15.1667 4.33301 15.1667C4.50982 15.1667 4.67939 15.0964 4.80441 14.9714C4.92944 14.8464 4.99967 14.6768 4.99967 14.5V13.8333H11.6663V14.5C11.6663 14.6768 11.7366 14.8464 11.8616 14.9714C11.9866 15.0964 12.1562 15.1667 12.333 15.1667C12.5098 15.1667 12.6794 15.0964 12.8044 14.9714C12.9294 14.8464 12.9997 14.6768 12.9997 14.5V13.7133C13.3887 13.5758 13.7257 13.3213 13.9644 12.9847C14.2031 12.6481 14.3318 12.246 14.333 11.8333V3.83333C14.333 3.3029 14.1223 2.79419 13.7472 2.41911C13.3721 2.04404 12.8634 1.83333 12.333 1.83333ZM12.9997 11.8333C12.9997 12.0101 12.9294 12.1797 12.8044 12.3047C12.6794 12.4298 12.5098 12.5 12.333 12.5H4.33301C4.1562 12.5 3.98663 12.4298 3.8616 12.3047C3.73658 12.1797 3.66634 12.0101 3.66634 11.8333V9.83333H12.9997V11.8333ZM12.9997 8.49999H3.66634V3.83333C3.66634 3.65652 3.73658 3.48695 3.8616 3.36192C3.98663 3.2369 4.1562 3.16666 4.33301 3.16666H12.333C12.5098 3.16666 12.6794 3.2369 12.8044 3.36192C12.9294 3.48695 12.9997 3.65652 12.9997 3.83333V8.49999Z" fill="#9BA8BB"/>
</g>
</svg>
